<svg width="20" height="19" viewBox="0 0 20 19" fill="none" xmlns="http://www.w3.org/2000/svg">
<path fill-rule="evenodd" clip-rule="evenodd" d="M14.9395 0.5C16.2805 0.5 17.5705 1.03 18.5195 1.981C19.4695 2.93 20.0005 4.21 20.0005 5.55V13.45C20.0005 16.24 17.7305 18.5 14.9395 18.5H5.06049C2.26949 18.5 0.000488281 16.24 0.000488281 13.45V5.55C0.000488281 2.76 2.25949 0.5 5.06049 0.5H14.9395ZM16.5305 7.04L16.6105 6.96C16.8495 6.67 16.8495 6.25 16.5995 5.96C16.4605 5.811 16.2695 5.72 16.0705 5.7C15.8605 5.689 15.6605 5.76 15.5095 5.9L11.0005 9.5C10.4205 9.981 9.58949 9.981 9.00049 9.5L4.50049 5.9C4.18949 5.67 3.75949 5.7 3.50049 5.97C3.23049 6.24 3.20049 6.67 3.42949 6.97L3.56049 7.1L8.11049 10.65C8.67049 11.09 9.34949 11.33 10.0605 11.33C10.7695 11.33 11.4605 11.09 12.0195 10.65L16.5305 7.04Z" fill="white"/>
</svg>
